<?xml version="1.0" encoding="UTF-8" standalone="no"?>
<!DOCTYPE svg PUBLIC "-//W3C//DTD SVG 1.1//EN" "http://www.w3.org/Graphics/SVG/1.1/DTD/svg11.dtd">
<svg width="100%" height="100%" viewBox="0 0 1024 1024" version="1.1" xmlns="http://www.w3.org/2000/svg" xmlns:xlink="http://www.w3.org/1999/xlink" xml:space="preserve" xmlns:serif="http://www.serif.com/" style="fill-rule:evenodd;clip-rule:evenodd;stroke-linejoin:round;stroke-miterlimit:2;">
    <g transform="matrix(1,0,0,1,-2248,-2248)">
        <g id="NativeScript_Logo_Transparent_White_Rounded" transform="matrix(1,0,0,1,2248,2248)">
            <path d="M1024,256C1024,114.71 909.29,0 768,0L256,0C114.71,0 0,114.71 0,256L0,768C0,909.29 114.71,1024 256,1024L768,1024C909.29,1024 1024,909.29 1024,768L1024,256Z" style="fill:none;"/>
            <clipPath id="_clip1">
                <path d="M1024,256C1024,114.71 909.29,0 768,0L256,0C114.71,0 0,114.71 0,256L0,768C0,909.29 114.71,1024 256,1024L768,1024C909.29,1024 1024,909.29 1024,768L1024,256Z"/>
            </clipPath>
            <g clip-path="url(#_clip1)">
                <g transform="matrix(1,0,0,1,-3372,-1124)">
                    <g id="NativeScript-Logo" serif:id="NativeScript Logo">
                        <path d="M4396,1124L3372,1124L3372,2148L4396,2148L4396,1124ZM4215,1635.86L4215,1636.96C4215,1637.22 4214.81,1637.43 4214.55,1637.45C4181.19,1640.58 4155.07,1667.69 4155.07,1701.86L4155.07,1838.81C4155.07,1848.37 4153.06,1857.61 4149.43,1866.04C4139.08,1890.11 4115.59,1907.61 4088.27,1907.61L4019.07,1907.61L4018.59,1907.01L3749.41,1569.68L3749.41,1907.61L3679.73,1907.61C3642.84,1907.61 3612.93,1877.7 3612.93,1840.81L3612.93,1701.86C3612.93,1667.69 3586.82,1640.58 3553.45,1637.45C3553.2,1637.43 3553,1637.22 3553,1636.96L3553,1635.86C3553,1635.61 3553.19,1635.4 3553.45,1635.37C3586.69,1632.13 3612.67,1604.35 3612.67,1570.26L3612.67,1431.19C3612.67,1421.9 3614.57,1413.05 3618,1405.01C3628.18,1381.13 3651.87,1364.39 3679.47,1364.39L3749.13,1364.39L3749.41,1364.74L4018.59,1702.08L4018.59,1364.39L4088.53,1364.39C4125.42,1364.39 4155.33,1394.3 4155.33,1431.19L4155.33,1570.26C4155.33,1604.35 4181.31,1632.13 4214.55,1635.37C4214.81,1635.4 4215,1635.61 4215,1635.86Z" style="fill:white;"/>
                    </g>
                </g>
            </g>
        </g>
    </g>
</svg>
