<?xml version="1.0" encoding="UTF-8"?>
<svg version="1.1" xmlns="http://www.w3.org/2000/svg" width="1024" height="1024">
<path d="M0 0 C337.92 0 675.84 0 1024 0 C1024 337.92 1024 675.84 1024 1024 C686.08 1024 348.16 1024 0 1024 C0 686.08 0 348.16 0 0 Z " fill="#FEFEFE" transform="translate(0,0)"/>
<path d="M0 0 C4.18307632 -0.05671237 8.36233575 -0.13864566 12.54348087 -0.27995491 C16.62086969 -0.41708093 20.69479853 -0.48892843 24.77434826 -0.51665306 C26.31479771 -0.53795775 27.85512503 -0.5816477 29.39423275 -0.64936638 C41.03096878 -1.13828147 41.03096878 -1.13828147 45.31070042 2.03451157 C48.966937 5.54809738 51.77146566 9.55763069 54.5857172 13.75568962 C55.58003292 15.02290733 56.58466381 16.28227161 57.6091547 17.52522087 C58.38517033 18.52940056 59.16118595 19.53358025 59.9607172 20.56818962 C63.89171693 25.6267242 67.90088903 30.61257063 71.9607172 35.56818962 C76.42763251 41.02841366 80.76640587 46.56784059 85.0232172 52.19318962 C90.02224152 58.79547462 95.20205517 65.2195332 100.49343204 71.58918571 C104.57089492 76.50281818 108.54840393 81.48193827 112.47292423 86.51814079 C115.95470002 90.97697797 119.50838269 95.37325828 123.0857172 99.75568962 C127.59338934 105.27902619 132.03414488 110.84753559 136.4216547 116.46662712 C139.92348175 120.94005937 143.493944 125.35426516 147.0857172 129.75568962 C153.46725718 137.57913095 159.70770829 145.50641027 165.91970158 153.464674 C171.78465325 160.97352454 177.72526746 168.4123149 183.74929142 175.79426384 C187.69802214 180.64101801 191.574268 185.53927222 195.4216547 190.46662712 C198.92347967 194.94005671 202.49382885 199.35436164 206.0857172 203.75568962 C210.59497377 209.28111668 215.03844458 214.85085121 219.42604923 220.47321892 C222.87946431 224.88674561 226.41067866 229.23218808 229.9607172 233.56818962 C234.42745542 239.02856403 238.76640015 244.56783303 243.0232172 250.19318962 C248.02224152 256.79547462 253.20205517 263.2195332 258.49343204 269.58918571 C262.57089492 274.50281818 266.54840393 279.48193827 270.47292423 284.51814079 C273.95470002 288.97697797 277.50838269 293.37325828 281.0857172 297.75568962 C285.5861349 303.27013719 290.0220765 308.82794513 294.39968204 314.44025993 C298.66491978 319.89314711 303.03886751 325.25589735 307.43532658 330.60334587 C307.96190861 331.24658806 308.48849064 331.88983025 309.0310297 332.55256462 C309.50040958 333.12329704 309.96978947 333.69402946 310.45339298 334.28205681 C311.5857172 335.75568962 311.5857172 335.75568962 312.5857172 337.75568962 C312.9157172 226.87568962 313.2457172 115.99568962 313.5857172 1.75568962 C411.28883106 1.75568962 411.28883106 1.75568962 430.7888422 20.82990837 C446.01286123 36.37927109 449.74434661 53.50965494 449.71169376 74.49909782 C449.71309069 75.98667262 449.71499141 77.47424702 449.71735477 78.9618206 C449.72183421 82.15487105 449.72370747 85.34790871 449.72381687 88.54096222 C449.72496449 93.60859821 449.73785802 98.67616254 449.75338078 103.74377251 C449.75724006 105.03139149 449.75724006 105.03139149 449.7611773 106.34502298 C449.76644364 108.10002778 449.77172912 109.85503252 449.77703333 111.61003721 C449.81200392 123.39533423 449.83870471 135.18054136 449.83620548 146.9658947 C449.83460717 154.93147009 449.85087857 162.89679918 449.88691211 170.86229581 C449.90521583 175.06537993 449.91485367 179.26805371 449.90243626 183.47116852 C449.83572615 208.54112239 449.94305167 232.22023516 468.32399845 251.48225212 C469.07036564 252.2324865 469.81673283 252.98272087 470.5857172 253.75568962 C471.17739689 254.382174 471.76907658 255.00865837 472.37868595 255.65412712 C482.13475527 265.17329409 496.28168136 270.3552648 509.5857172 271.75568962 C509.5857172 272.74568962 509.5857172 273.73568962 509.5857172 274.75568962 C508.17032658 274.99352165 508.17032658 274.99352165 506.7263422 275.23615837 C489.76228578 278.31898389 474.67064071 284.95053949 463.5857172 298.75568962 C455.82520696 310.27541951 450.47993138 323.05117249 450.4476862 337.12264824 C450.43950619 339.05061493 450.43950619 339.05061493 450.43116093 341.01753044 C450.43004125 342.43488879 450.42899072 343.85224719 450.42800236 345.26960564 C450.42333097 346.76809652 450.41818687 348.266586 450.41260624 349.76507378 C450.40134355 352.98929078 450.39290038 356.21349865 450.38648701 359.43772888 C450.37577789 364.54521022 450.35552355 369.65262599 450.33336735 374.76006889 C450.27154655 389.28307386 450.21750976 403.80607515 450.18435001 418.32917595 C450.16595078 426.35248228 450.13694702 434.37567877 450.09634531 442.39890426 C450.07536078 446.63915831 450.05983027 450.87927444 450.05753803 455.11958313 C450.05537589 459.11452761 450.03934875 463.10918519 450.01314831 467.10404205 C450.00601255 468.56157914 450.00382618 470.01915121 450.00725079 471.47670174 C450.04794281 492.1073471 443.4395808 510.52846852 429.1482172 525.63068962 C408.68456099 544.63601631 383.83025294 545.24127433 357.49113369 545.71862793 C353.31220206 545.79603721 349.1397052 545.90581183 344.96413517 546.09309196 C315.69192815 547.37275799 315.69192815 547.37275799 308.38771915 541.13972282 C305.24272844 537.70780732 302.89643166 534.02386765 300.76068974 529.90073967 C298.90695782 526.51653482 296.47711326 523.65387483 294.0232172 520.69318962 C293.13053638 519.55519068 292.24080822 518.41486372 291.35524845 517.27131462 C288.36216931 513.44999587 285.28599774 509.69841332 282.2107172 505.94318962 C277.74390825 500.48287569 273.40503186 494.94354305 269.1482172 489.31818962 C264.14919288 482.71590462 258.96937923 476.29184605 253.67800236 469.92219353 C249.60053949 465.00856106 245.62303048 460.02944097 241.69851017 454.99323845 C238.21673438 450.53440127 234.66305172 446.13812096 231.0857172 441.75568962 C226.57804506 436.23235306 222.13728953 430.66384365 217.7497797 425.04475212 C214.24795265 420.57131987 210.67749041 416.15711408 207.0857172 411.75568962 C200.70417722 403.93224829 194.46372611 396.00496897 188.25173283 388.04670525 C182.38678115 380.5378547 176.44616695 373.09906434 170.42214298 365.7171154 C166.47341227 360.87036124 162.5971664 355.97210702 158.7497797 351.04475212 C155.24795473 346.57132254 151.67760556 342.15701761 148.0857172 337.75568962 C143.57646063 332.23026256 139.13298982 326.66052803 134.74538517 321.03816032 C131.29197009 316.62463363 127.76075574 312.27919116 124.2107172 307.94318962 C119.74397898 302.48281521 115.40503425 296.94354621 111.1482172 291.31818962 C106.14919288 284.71590462 100.96937923 278.29184605 95.67800236 271.92219353 C91.60053949 267.00856106 87.62303048 262.02944097 83.69851017 256.99323845 C80.21673223 252.53439851 76.66293735 248.13821685 73.0857172 243.75568962 C67.16011617 236.49140302 61.3599002 229.14127253 55.5857172 221.75568962 C50.1407172 214.82568962 50.1407172 214.82568962 44.5857172 207.75568962 C44.0907172 374.07568962 44.0907172 374.07568962 43.5857172 543.75568962 C-53.47625224 543.75568962 -53.47625224 543.75568962 -73.09787655 525.20490837 C-84.76965265 512.8639242 -92.52641406 497.35922271 -92.54558468 480.21946526 C-92.54959286 478.9217318 -92.55360104 477.62399834 -92.55773067 476.28693962 C-92.55725564 474.86067007 -92.55671954 473.43440054 -92.5561285 472.00813103 C-92.55916293 470.49627901 -92.56268516 468.9844279 -92.56665707 467.47257805 C-92.57452814 464.22164751 -92.57968438 460.97072786 -92.58294773 457.71978951 C-92.58888263 452.5649236 -92.60544894 447.41012585 -92.62428951 442.25529289 C-92.6306267 440.48617558 -92.63695232 438.71705822 -92.64326668 436.94794083 C-92.64643249 436.06199572 -92.6495983 435.17605062 -92.65286005 434.2632587 C-92.69481807 422.27002525 -92.72787141 410.27682358 -92.74021053 398.28352165 C-92.74862863 390.18433798 -92.77125895 382.08532353 -92.8095662 373.98622453 C-92.82920524 369.70892922 -92.84177238 365.43188615 -92.83673191 361.15454292 C-92.83203662 357.12093049 -92.84615249 353.08779407 -92.87374401 349.05427742 C-92.88057537 347.58713151 -92.88087108 346.1199355 -92.87354374 344.65279198 C-92.78722784 325.40071462 -97.49609727 308.14997909 -111.10568905 293.96662712 C-122.71178659 282.85148125 -136.4483494 276.52968222 -152.4142828 274.75568962 C-152.4142828 273.76568962 -152.4142828 272.77568962 -152.4142828 271.75568962 C-151.10717342 271.51785759 -151.10717342 271.51785759 -149.7736578 271.27522087 C-130.95383828 267.58865449 -115.60651997 259.47349587 -104.18381405 243.66975212 C-92.114818 224.24161214 -92.68484092 203.11690125 -92.77124715 181.06144023 C-92.78195775 176.82739176 -92.76255311 172.59347936 -92.74611568 168.35946465 C-92.71915122 160.3608674 -92.71544128 152.36246049 -92.72188872 144.36382681 C-92.73289222 130.02748433 -92.70807208 115.69119769 -92.66814107 101.35491329 C-92.65514356 96.33571243 -92.65376574 91.31668568 -92.662274 86.29747665 C-92.66591672 83.17330611 -92.66157906 80.04917955 -92.6554327 76.9250145 C-92.65435419 75.48595833 -92.6566685 74.04689463 -92.6627779 72.60785103 C-92.74372423 52.56869438 -87.74298385 35.98518303 -73.83225155 21.14240837 C-52.86293614 0.44410188 -27.68792314 0.36898866 0 0 Z " fill="#1F2937" transform="translate(333.4142827987671,239.24431037902832)"/>
</svg>
