<?xml version="1.0" encoding="UTF-8" standalone="no"?>
<!DOCTYPE svg PUBLIC "-//W3C//DTD SVG 1.1//EN" "http://www.w3.org/Graphics/SVG/1.1/DTD/svg11.dtd">
<svg width="100%" height="100%" viewBox="0 0 1024 1024" version="1.1" xmlns="http://www.w3.org/2000/svg" xmlns:xlink="http://www.w3.org/1999/xlink" xml:space="preserve" xmlns:serif="http://www.serif.com/" style="fill-rule:evenodd;clip-rule:evenodd;stroke-linejoin:round;stroke-miterlimit:2;">
    <g transform="matrix(1,0,0,1,-2248,0)">
        <g id="NativeScript_Logo_White_Blue_Rounded" transform="matrix(1,0,0,1,2248,0)">
            <path d="M1024,256C1024,114.71 909.29,0 768,0L256,0C114.71,0 0,114.71 0,256L0,768C0,909.29 114.71,1024 256,1024L768,1024C909.29,1024 1024,909.29 1024,768L1024,256Z" style="fill:none;"/>
            <clipPath id="_clip1">
                <path d="M1024,256C1024,114.71 909.29,0 768,0L256,0C114.71,0 0,114.71 0,256L0,768C0,909.29 114.71,1024 256,1024L768,1024C909.29,1024 1024,909.29 1024,768L1024,256Z"/>
            </clipPath>
            <g clip-path="url(#_clip1)">
                <g id="Background">
                    <rect x="0" y="0" width="1024" height="1024" style="fill:rgb(101,173,241);"/>
                </g>
                <g transform="matrix(1,0,0,1,843,512.135)">
                    <g id="NativeScript-Logo" serif:id="NativeScript Logo">
                        <path d="M0,-0.271L0,0.828C0,1.084 -0.195,1.296 -0.451,1.32C-33.815,4.443 -59.93,31.553 -59.93,65.729L-59.93,202.67C-59.93,212.239 -61.94,221.47 -65.57,229.899C-75.92,253.97 -99.41,271.47 -126.73,271.47L-195.93,271.47L-196.41,270.869L-465.59,-66.451L-465.59,271.47L-535.27,271.47C-572.163,271.47 -602.07,241.562 -602.07,204.67L-602.07,65.729C-602.07,31.554 -628.185,4.443 -661.549,1.32C-661.805,1.296 -662,1.084 -662,0.828L-662,-0.271C-662,-0.526 -661.806,-0.738 -661.551,-0.763C-628.306,-4 -602.33,-31.784 -602.33,-65.88L-602.33,-204.94C-602.33,-214.23 -600.43,-223.09 -597,-231.121C-586.82,-255 -563.13,-271.741 -535.53,-271.741L-465.87,-271.741L-465.59,-271.391L-196.41,65.939L-196.41,-271.741L-126.47,-271.741C-89.577,-271.741 -59.67,-241.833 -59.67,-204.94L-59.67,-65.88C-59.67,-31.784 -33.694,-4 -0.448,-0.763C-0.194,-0.738 0,-0.526 0,-0.271" style="fill:white;fill-rule:nonzero;"/>
                    </g>
                </g>
            </g>
        </g>
    </g>
</svg>
