<?xml version="1.0" encoding="UTF-8" standalone="no"?>
<!DOCTYPE svg PUBLIC "-//W3C//DTD SVG 1.1//EN" "http://www.w3.org/Graphics/SVG/1.1/DTD/svg11.dtd">
<svg width="100%" height="100%" viewBox="0 0 1024 1024" version="1.1" xmlns="http://www.w3.org/2000/svg" xmlns:xlink="http://www.w3.org/1999/xlink" xml:space="preserve" xmlns:serif="http://www.serif.com/" style="fill-rule:evenodd;clip-rule:evenodd;stroke-linejoin:round;stroke-miterlimit:2;">
    <g transform="matrix(1,0,0,1,-1124,-2248)">
        <g id="NativeScript_Logo_Transparent_White" transform="matrix(1,0,0,1,1124,2248)">
            <rect x="0" y="0" width="1024" height="1024" style="fill:none;"/>
            <g transform="matrix(1,0,0,1,-1124,-2248)">
                <g id="NativeScript-Logo" serif:id="NativeScript Logo">
                    <path d="M2148,2248L1124,2248L1124,3272L2148,3272L2148,2248ZM1967,2759.86L1967,2760.96C1967,2761.22 1966.81,2761.43 1966.55,2761.46C1933.18,2764.58 1907.07,2791.69 1907.07,2825.86L1907.07,2962.81C1907.07,2972.38 1905.06,2981.61 1901.43,2990.03C1891.08,3014.11 1867.59,3031.61 1840.27,3031.61L1771.07,3031.61L1770.59,3031.01L1501.41,2693.68L1501.41,3031.61L1431.73,3031.61C1394.84,3031.61 1364.93,3001.7 1364.93,2964.81L1364.93,2825.86C1364.93,2791.69 1338.82,2764.58 1305.45,2761.46C1305.19,2761.43 1305,2761.22 1305,2760.96L1305,2759.86C1305,2759.61 1305.19,2759.4 1305.45,2759.37C1338.69,2756.14 1364.67,2728.35 1364.67,2694.26L1364.67,2555.2C1364.67,2545.91 1366.57,2537.05 1370,2529.01C1380.18,2505.14 1403.87,2488.39 1431.47,2488.39L1501.13,2488.39L1501.41,2488.74L1770.59,2826.07L1770.59,2488.39L1840.53,2488.39C1877.42,2488.39 1907.33,2518.3 1907.33,2555.2L1907.33,2694.26C1907.33,2728.35 1933.31,2756.14 1966.55,2759.37C1966.81,2759.4 1967,2759.61 1967,2759.86Z" style="fill:white;"/>
                </g>
            </g>
        </g>
    </g>
</svg>
