<?xml version="1.0" encoding="UTF-8"?>
<svg version="1.1" xmlns="http://www.w3.org/2000/svg" width="1024" height="1024">
<path d="M0 0 C1.26662664 -0.01696426 1.26662664 -0.01696426 2.55884171 -0.03427124 C7.01193185 -0.09358348 11.46452409 -0.13093059 15.91796875 -0.1484375 C20.48554421 -0.17051938 25.04843421 -0.26707602 29.61453056 -0.38032532 C33.16304877 -0.45509161 36.71043887 -0.47566393 40.25967789 -0.48178101 C41.94307734 -0.4937951 43.62646792 -0.52560071 45.30907822 -0.57852173 C59.0312508 -0.98000199 59.0312508 -0.98000199 63.72288513 3.44366455 C66.32958573 6.34248555 68.43036309 9.51591152 70.5078125 12.8125 C71.46534082 14.0503798 72.43727893 15.2774932 73.43359375 16.484375 C74.22121094 17.50015625 75.00882813 18.5159375 75.8203125 19.5625 C79.8215552 24.69704266 83.89123434 29.77001009 88.0078125 34.8125 C92.51551656 40.33581036 96.95624063 45.90434655 101.34375 51.5234375 C104.84557497 55.99686708 108.41592414 60.41117202 112.0078125 64.8125 C116.51475568 70.33509235 120.95565705 75.90218772 125.34155273 81.52124023 C128.86156396 86.01913846 132.45638138 90.45235702 136.0703125 94.875 C140.79746525 100.6624487 145.38621026 106.5306909 149.91796875 112.47265625 C153.39309299 116.98991068 157.01514213 121.38790339 160.62109375 125.80078125 C164.13117448 130.10186608 167.59198325 134.43626186 171.0078125 138.8125 C174.94966281 143.86103686 178.9580587 148.85012563 183.0078125 153.8125 C187.51706907 159.33792706 191.96053988 164.90766159 196.34814453 170.5300293 C199.80155961 174.94355599 203.33277396 179.28899846 206.8828125 183.625 C211.34955072 189.08537441 215.68849545 194.62464341 219.9453125 200.25 C224.94433682 206.852285 230.12415047 213.27634358 235.41552734 219.64599609 C239.49299022 224.55962856 243.47049922 229.53874865 247.39501953 234.57495117 C250.87679532 239.03378835 254.43047799 243.43006866 258.0078125 247.8125 C262.51548464 253.33583657 266.95624017 258.90434597 271.34375 264.5234375 C274.84557705 268.99686975 278.41603929 273.41107554 282.0078125 277.8125 C288.38935248 285.63594133 294.62980359 293.56322065 300.84179688 301.52148438 C307.80236976 310.43304995 314.87852999 319.24312916 322.03491211 327.99829102 C323.87116086 330.26004544 325.68788567 332.53759146 327.5078125 334.8125 C327.8378125 224.5925 328.1678125 114.3725 328.5078125 0.8125 C427.57177185 0.8125 427.57177185 0.8125 446.88671875 20.05859375 C459.45720507 33.26603467 466.61844326 49.07148511 466.63911438 67.43774414 C466.64512665 69.37595284 466.64512665 69.37595284 466.65126038 71.35331726 C466.65078538 72.76809694 466.65024928 74.18287661 466.6496582 75.59765625 C466.6526935 77.1014262 466.65621597 78.60519524 466.66018677 80.10896301 C466.66805009 83.33914287 466.67321108 86.56931181 466.67647743 89.79949951 C466.68241704 94.92056608 466.69898688 100.04156422 466.71781921 105.16259766 C466.72415609 106.92059322 466.73048172 108.67858883 466.73679638 110.43658447 C466.73996219 111.31684547 466.743128 112.19710648 466.74638975 113.10404205 C466.78834298 125.01677758 466.82141113 136.92948067 466.83374023 148.84228516 C466.84215466 156.89019432 466.86476958 164.93793301 466.9030959 172.98575687 C466.92274315 177.23561919 466.93529919 181.48522736 466.93026161 185.73513794 C466.92557113 189.74085576 466.93965678 193.7460935 466.96727371 197.75171471 C466.97411231 199.20960603 466.97439262 200.6675478 466.96707344 202.12543678 C466.88054303 221.32249243 472.06346478 238.28256935 485.72265625 252.12109375 C497.22477617 263.23604554 510.16682611 268.20535244 525.5078125 271.8125 C525.5078125 272.8025 525.5078125 273.7925 525.5078125 274.8125 C524.28707031 275.09222656 523.06632813 275.37195313 521.80859375 275.66015625 C502.69116524 280.22964044 486.98790416 288.27906647 475.96875 305.2109375 C468.98922995 317.63970849 467.20871064 329.23080274 467.22070312 343.27392578 C467.21466838 344.71888104 467.20774149 346.1638328 467.19999695 347.60877991 C467.18517823 350.70579168 467.17637632 353.80273976 467.17228699 356.89978409 C467.16552881 361.81101042 467.14372029 366.72210194 467.11975098 371.63327026 C467.07091556 382.06798173 467.03854456 392.5027219 467.0078125 402.9375 C466.9746374 414.18547658 466.9384526 425.43339992 466.88368177 436.68129528 C466.86053537 441.54852719 466.84664318 446.41566545 466.84018707 451.28294683 C466.8341839 454.33090565 466.82003266 457.37879004 466.80384254 460.42671013 C466.79804235 461.823332 466.79547821 463.21997236 466.79668236 464.61660576 C466.81103455 487.93287545 462.03986792 509.06026192 445.1875 526.16796875 C425.04965962 545.01168459 401.91325671 545.45435686 375.85024548 545.80575752 C371.31884284 545.86688264 366.79314805 545.95952968 362.2644043 546.12939453 C330.48040503 547.29307343 330.48040503 547.29307343 323.35595703 541.41699219 C320.41079229 538.21196206 318.36286131 534.79427472 316.53848267 530.85858154 C314.83535298 527.47753653 312.42029238 524.70653246 310.0078125 521.8125 C309.10852655 520.66937438 308.21228232 519.52384343 307.3203125 518.375 C304.26236807 514.48307072 301.13717781 510.64707439 298.0078125 506.8125 C293.50021277 501.28910315 289.05938608 495.72065564 284.671875 490.1015625 C281.17005003 485.62813292 277.59970086 481.21382798 274.0078125 476.8125 C269.50086932 471.28990765 265.05996795 465.72281228 260.67407227 460.10375977 C257.15406104 455.60586154 253.55924362 451.17264298 249.9453125 446.75 C245.21815975 440.9625513 240.62941474 435.0943091 236.09765625 429.15234375 C232.62253201 424.63508932 229.00048287 420.23709661 225.39453125 415.82421875 C221.88445052 411.52313392 218.42364175 407.18873814 215.0078125 402.8125 C211.06596219 397.76396314 207.0575663 392.77487437 203.0078125 387.8125 C198.49855593 382.28707294 194.05508512 376.71733841 189.66748047 371.0949707 C186.21406539 366.68144401 182.68285104 362.33600154 179.1328125 358 C174.66607428 352.53962559 170.32712955 347.00035659 166.0703125 341.375 C161.07128818 334.772715 155.89147453 328.34865642 150.60009766 321.97900391 C146.52263478 317.06537144 142.54512578 312.08625135 138.62060547 307.05004883 C135.13882968 302.59121165 131.58514701 298.19493134 128.0078125 293.8125 C123.50014036 288.28916343 119.05938483 282.72065403 114.671875 277.1015625 C111.17004795 272.62813025 107.59958571 268.21392446 104.0078125 263.8125 C97.62627252 255.98905867 91.38582141 248.06177935 85.17382812 240.10351562 C83.82805925 238.38053854 82.48093216 236.65863833 81.1328125 234.9375 C80.69130859 234.37369629 80.24980469 233.80989258 79.79492188 233.22900391 C75.48780006 227.74959322 71.08470471 222.34899874 66.65869141 216.96533203 C66.13194824 216.32192871 65.60520508 215.67852539 65.0625 215.015625 C64.59312012 214.44489258 64.12374023 213.87416016 63.64013672 213.28613281 C62.5078125 211.8125 62.5078125 211.8125 61.5078125 209.8125 C61.1778125 320.3625 60.8478125 430.9125 60.5078125 544.8125 C-37.10010117 544.8125 -37.10010117 544.8125 -58.83203125 524.640625 C-75.03202182 508.13601922 -77.63397951 487.08419756 -77.64990234 465.00634766 C-77.65458071 463.53667553 -77.65972593 462.06700482 -77.66529846 460.59733582 C-77.67650725 457.45069136 -77.68497573 454.30405598 -77.69141769 451.15739822 C-77.70217834 446.17133397 -77.72244282 441.18533561 -77.74453735 436.1993103 C-77.80619602 422.02710996 -77.86044216 407.85491524 -77.89355469 393.68261719 C-77.91195466 385.84129135 -77.94095162 378.00007792 -77.9815594 370.15883482 C-78.00252748 366.019259 -78.01807222 361.87982412 -78.02036667 357.74019241 C-78.02252891 353.8444924 -78.03855695 349.94908651 -78.06475639 346.05347633 C-78.07188935 344.63302423 -78.07407992 343.21253627 -78.07065392 341.79207039 C-78.03196622 322.68485022 -83.58377356 307.59115846 -96.59765625 293.5390625 C-107.69487023 282.6463198 -121.55087758 277.83255201 -136.4921875 274.8125 C-136.4921875 273.8225 -136.4921875 272.8325 -136.4921875 271.8125 C-135.34363281 271.53277344 -134.19507813 271.25304687 -133.01171875 270.96484375 C-118.09928387 267.18195729 -106.51381543 261.95502331 -95.4921875 250.8125 C-94.94175781 250.29558594 -94.39132813 249.77867187 -93.82421875 249.24609375 C-90.0954144 245.41732146 -87.73575239 240.83498076 -85.3046875 236.125 C-84.97130371 235.49005615 -84.63791992 234.8551123 -84.29443359 234.20092773 C-78.92102322 223.33106211 -78.05217629 212.4077311 -78.10742188 200.44384766 C-78.10330665 198.93771455 -78.09784021 197.43158464 -78.09114075 195.92546082 C-78.07949702 192.70568429 -78.07690208 189.48607879 -78.08149719 186.26628494 C-78.08836306 181.16184152 -78.07234295 176.05761909 -78.05310059 170.95321655 C-78.01539398 160.11465613 -78.00247107 149.27611593 -77.9921875 138.4375 C-77.9810828 126.73887629 -77.96554335 115.04035622 -77.92147493 103.34180295 C-77.90325424 98.2810457 -77.89917718 93.22054559 -77.90641022 88.15976357 C-77.90794561 84.99602594 -77.89706404 81.83241389 -77.88303185 78.66871071 C-77.87907201 77.21683416 -77.88007969 75.76493286 -77.88680458 74.31306648 C-77.94004177 61.84905211 -76.74714008 49.62332697 -70.7421875 38.5 C-70.39003174 37.82759277 -70.03787598 37.15518555 -69.67504883 36.46240234 C-61.15700212 20.59909735 -48.14746756 9.22484447 -30.92819214 3.66088867 C-20.54011892 0.90098282 -10.72203079 0.09873087 0 0 Z " fill="#1F2937" transform="translate(317.4921875,239.1875)"/>
</svg>
